<svg id="Layer_1" data-name="Layer 1" xmlns="http://www.w3.org/2000/svg" xmlns:xlink="http://www.w3.org/1999/xlink" viewBox="0 0 477.011 359.52"><defs><style>.cls-1,.cls-2,.cls-3,.cls-4{fill:none;stroke-miterlimit:10;}.cls-1{stroke-width:22.401px;stroke:url(#linear-gradient);}.cls-2,.cls-3,.cls-4{stroke-width:25px;}.cls-2{stroke:url(#linear-gradient-2);}.cls-3{stroke:url(#linear-gradient-3);}.cls-4{stroke:url(#linear-gradient-4);}</style><linearGradient id="linear-gradient" x1="57.336" y1="113.733" x2="226.31" y2="113.733" gradientUnits="userSpaceOnUse"><stop offset="0" stop-color="#01b7cb"/><stop offset="0.01" stop-color="#01b7cb"/><stop offset="0.988" stop-color="#069da3"/><stop offset="1" stop-color="#069da3"/></linearGradient><linearGradient id="linear-gradient-2" x1="242.717" y1="94.288" x2="431.292" y2="94.288" xlink:href="#linear-gradient"/><linearGradient id="linear-gradient-3" x1="495.385" y1="635.258" x2="778.5" y2="635.258" xlink:href="#linear-gradient"/><linearGradient id="linear-gradient-4" x1="301.489" y1="646.406" x2="524.213" y2="646.406" xlink:href="#linear-gradient"/></defs><title>about svg</title><circle class="cls-1" cx="141.823" cy="113.733" r="73.286"/><circle class="cls-2" cx="337.004" cy="94.288" r="81.788"/><path class="cls-3" d="M508.075,698.658h257.89c.244-10.064.032-49.651-29.473-84-38.012-44.249-93.045-43.018-100.209-42.736-8.371.037-55.931,1.051-92.84,39.788C509.925,646.891,508.221,689.009,508.075,698.658Z" transform="translate(-301.489 -360.48)"/><path class="cls-4" d="M316.507,705.991h0l11.782.035c39.878.123,65.707,1.464,91.367,1.474H453.55a148.318,148.318,0,0,1,45.683-117.866c-8.473-2.154-70.293-16.76-125.26,23.723C328.805,646.622,318.586,694.754,316.507,705.991Z" transform="translate(-301.489 -360.48)"/></svg>