<svg id="Layer_1" data-name="Layer 1" xmlns="http://www.w3.org/2000/svg" xmlns:xlink="http://www.w3.org/1999/xlink" viewBox="0 0 384.089 278.5"><defs><style>.cls-1{fill:none;stroke-miterlimit:10;stroke-width:25px;stroke:url(#linear-gradient);}.cls-2{fill:url(#linear-gradient-2);}.cls-3{fill:url(#linear-gradient-3);}.cls-4{fill:url(#linear-gradient-4);}.cls-5{fill:url(#linear-gradient-5);}</style><linearGradient id="linear-gradient" y1="139.25" x2="384.089" y2="139.25" gradientUnits="userSpaceOnUse"><stop offset="0" stop-color="#17244c"/><stop offset="0.01" stop-color="#17244c"/><stop offset="0.988" stop-color="#233770"/><stop offset="1" stop-color="#233770"/></linearGradient><linearGradient id="linear-gradient-2" x1="73.844" y1="106.183" x2="145.724" y2="106.183" xlink:href="#linear-gradient"/><linearGradient id="linear-gradient-3" x1="397.335" y1="585.479" x2="517.432" y2="585.479" xlink:href="#linear-gradient"/><linearGradient id="linear-gradient-4" x1="196" y1="106" x2="311" y2="106" xlink:href="#linear-gradient"/><linearGradient id="linear-gradient-5" x1="196" y1="157" x2="311" y2="157" xlink:href="#linear-gradient"/></defs><title>contact svg</title><rect class="cls-1" x="12.5" y="12.5" width="359.089" height="253.5" rx="58.293"/><circle class="cls-2" cx="109.784" cy="106.183" r="35.94"/><path class="cls-3" d="M397.335,615H517.416c.114-4.686.015-23.119-13.724-39.112-17.7-20.6-43.324-20.03-46.659-19.9-3.9.017-26.044.489-43.229,18.527C398.2,590.9,397.4,610.507,397.335,615Z" transform="translate(-348 -401)"/><rect class="cls-4" x="196" y="95" width="115" height="22" rx="11"/><rect class="cls-5" x="196" y="146" width="115" height="22" rx="11"/></svg>