<svg id="Layer_1" data-name="Layer 1" xmlns="http://www.w3.org/2000/svg" xmlns:xlink="http://www.w3.org/1999/xlink" viewBox="0 0 380.464 274.874"><defs><style>.cls-1{fill:none;stroke-miterlimit:10;stroke-width:21.374px;stroke:url(#linear-gradient);}.cls-2{fill:url(#linear-gradient-2);}.cls-3{fill:url(#linear-gradient-3);}.cls-4{fill:url(#linear-gradient-4);}.cls-5{fill:url(#linear-gradient-5);}</style><linearGradient id="linear-gradient" y1="137.437" x2="380.464" y2="137.437" gradientUnits="userSpaceOnUse"><stop offset="0" stop-color="#01b7cb"/><stop offset="0.01" stop-color="#01b7cb"/><stop offset="0.988" stop-color="#069da3"/><stop offset="1" stop-color="#069da3"/></linearGradient><linearGradient id="linear-gradient-2" x1="72.031" y1="104.37" x2="143.911" y2="104.37" xlink:href="#linear-gradient"/><linearGradient id="linear-gradient-3" x1="397.335" y1="585.479" x2="517.432" y2="585.479" xlink:href="#linear-gradient"/><linearGradient id="linear-gradient-4" x1="194.187" y1="104.187" x2="309.187" y2="104.187" xlink:href="#linear-gradient"/><linearGradient id="linear-gradient-5" x1="194.187" y1="155.187" x2="309.187" y2="155.187" xlink:href="#linear-gradient"/></defs><title>contact svg 2</title><rect class="cls-1" x="10.687" y="10.687" width="359.089" height="253.5" rx="58.293"/><circle class="cls-2" cx="107.971" cy="104.37" r="35.94"/><path class="cls-3" d="M397.335,615H517.416c.114-4.686.015-23.119-13.724-39.112-17.7-20.6-43.324-20.03-46.659-19.9-3.9.017-26.044.489-43.229,18.527C398.2,590.9,397.4,610.507,397.335,615Z" transform="translate(-349.813 -402.813)"/><rect class="cls-4" x="194.187" y="93.187" width="115" height="22" rx="11"/><rect class="cls-5" x="194.187" y="144.187" width="115" height="22" rx="11"/></svg>