<svg id="Layer_1" data-name="Layer 1" xmlns="http://www.w3.org/2000/svg" xmlns:xlink="http://www.w3.org/1999/xlink" viewBox="0 0 368.91 410.263"><defs><style>.cls-1{fill:none;stroke-miterlimit:10;stroke-width:25.924px;stroke:url(#linear-gradient);}</style><linearGradient id="linear-gradient" x1="344.541" y1="508.33" x2="713.451" y2="508.33" gradientUnits="userSpaceOnUse"><stop offset="0" stop-color="#17244c"/><stop offset="0.01" stop-color="#17244c"/><stop offset="0.988" stop-color="#233770"/><stop offset="1" stop-color="#233770"/></linearGradient></defs><title>home svg</title><path class="cls-1" d="M357.5,454.659c.12,115.406,2.148,191.028,1.841,225.067A20.566,20.566,0,0,0,379.9,700.5h72.7a20.56,20.56,0,0,0,20.559-20.56V559.534a20.56,20.56,0,0,1,20.56-20.559h74.541a20.56,20.56,0,0,1,20.559,20.559V679.94a20.56,20.56,0,0,0,20.56,20.56h70.552a20.56,20.56,0,0,0,20.56-20.56V454.571a22.787,22.787,0,0,0-9.014-18.153L537.6,319.685a17.337,17.337,0,0,0-21.111.119L366.479,436.282A23.242,23.242,0,0,0,357.5,454.659Z" transform="translate(-344.541 -303.199)"/></svg>