<svg id="Layer_1" data-name="Layer 1" xmlns="http://www.w3.org/2000/svg" xmlns:xlink="http://www.w3.org/1999/xlink" viewBox="0 0 368.91 410.263"><defs><style>.cls-1{fill:none;stroke-miterlimit:10;stroke-width:25.924px;stroke:url(#linear-gradient);}</style><linearGradient id="linear-gradient" x1="355.052" y1="540.33" x2="723.962" y2="540.33" gradientUnits="userSpaceOnUse"><stop offset="0" stop-color="#01b7cb"/><stop offset="0.01" stop-color="#01b7cb"/><stop offset="0.988" stop-color="#069da3"/><stop offset="1" stop-color="#069da3"/></linearGradient></defs><title>home svg 2</title><path class="cls-1" d="M368.014,486.659c.12,115.406,2.148,191.028,1.841,225.067A20.566,20.566,0,0,0,390.413,732.5h72.7a20.56,20.56,0,0,0,20.559-20.56V591.534a20.56,20.56,0,0,1,20.56-20.559h74.541a20.56,20.56,0,0,1,20.559,20.559V711.94a20.56,20.56,0,0,0,20.56,20.56H690.44A20.56,20.56,0,0,0,711,711.94V486.571a22.787,22.787,0,0,0-9.014-18.153L548.111,351.685A17.337,17.337,0,0,0,527,351.8L376.99,468.282A23.242,23.242,0,0,0,368.014,486.659Z" transform="translate(-355.052 -335.199)"/></svg>