<svg id="Layer_1" data-name="Layer 1" xmlns="http://www.w3.org/2000/svg" xmlns:xlink="http://www.w3.org/1999/xlink" viewBox="0 0 310.927 217.552"><defs><style>.cls-1{fill:url(#linear-gradient);}</style><linearGradient id="linear-gradient" x1="384.603" y1="540.224" x2="695.531" y2="540.224" gradientUnits="userSpaceOnUse"><stop offset="0" stop-color="#17244c"/><stop offset="0.01" stop-color="#17244c"/><stop offset="0.988" stop-color="#233770"/><stop offset="1" stop-color="#233770"/></linearGradient></defs><title>mail1</title><path class="cls-1" d="M540.011,431.474q63.965,0,127.93.012c14.131.011,24.6,8.477,27.1,21.856a34.948,34.948,0,0,1,.467,6.364q.036,80.538.01,161.076c0,13.084-6.831,23.314-18.152,26.883a30.88,30.88,0,0,1-9.147,1.277q-128.367.1-256.733.032c-15.216-.008-26.442-11.028-26.756-26.317-.234-11.431-.072-22.871-.073-34.307q0-64.255-.03-128.512c-.018-10.506,3.853-18.827,12.756-24.592,4.73-3.063,10.028-3.8,15.569-3.8Q476.482,431.517,540.011,431.474Zm123.03,19.447H417.073c1.232,1.1,1.932,1.717,2.618,2.345q8.045,7.357,16.085,14.719,43.554,39.817,87.171,79.564c3.828,3.469,8.413,6.152,12.831,8.9a7.978,7.978,0,0,0,8.619,0c4.5-2.809,9.16-5.546,13.057-9.081q46.619-42.281,92.957-84.868C654.455,458.809,658.488,455.1,663.041,450.921Zm-81.3,104.7c-4.273,3.863-8.332,7.6-12.459,11.253-17.37,15.39-41.7,15.207-58.844-.408-3.928-3.577-7.88-7.128-11.984-10.839l-80.68,73.943H662.386Zm13.821-14.49,80.411,74.845V468.333ZM404.175,615.989l80.414-74.854-80.414-72.811Z" transform="translate(-384.603 -431.448)"/></svg>