<svg id="Layer_1" data-name="Layer 1" xmlns="http://www.w3.org/2000/svg" xmlns:xlink="http://www.w3.org/1999/xlink" viewBox="0 0 213.059 414.267"><defs><style>.cls-1{fill:url(#linear-gradient);}</style><linearGradient id="linear-gradient" x1="432.976" y1="540.085" x2="646.035" y2="540.085" gradientUnits="userSpaceOnUse"><stop offset="0" stop-color="#01b7cb"/><stop offset="0.01" stop-color="#01b7cb"/><stop offset="0.988" stop-color="#069da3"/><stop offset="1" stop-color="#069da3"/></linearGradient></defs><title>phone2</title><path class="cls-1" d="M646.032,540.153q0,90.415,0,180.83c0,12.2-7.043,22.014-18.2,25.133a29.837,29.837,0,0,1-7.92,1.054q-80.481.089-160.962.038c-14.935,0-25.935-10.976-25.95-25.953q-.056-55.7-.013-111.4,0-125.355.007-250.709c0-12.611,7.555-22.609,19.285-25.432a28.566,28.566,0,0,1,6.625-.728q80.594-.06,161.186-.028c14.977,0,25.933,10.926,25.938,25.918Q646.051,449.514,646.032,540.153ZM630,529.4q0-71.877,0-143.755c0-5.149-1.832-6.994-6.97-6.994q-83.485-.006-166.97,0c-5.152,0-7.037,1.864-7.037,6.956q0,143.643,0,287.287c0,5.135,1.841,6.962,7,6.962H622.54c5.835,0,7.459-1.607,7.459-7.366Q630,600.945,630,529.4ZM539.575,693.166a21.225,21.225,0,1,0,21.16,21.136A21.194,21.194,0,0,0,539.575,693.166Zm-.314-331.086q13.485,0,26.97-.006c2.646,0,3.432-.816,3.492-3.446.007-.3,0-.594.006-.892.016-4.768-.321-5.115-5-5.115h-49.26c-1.04,0-2.081-.022-3.12.011-1.95.062-3.036,1.023-3.051,3.04-.006.818-.012,1.635-.008,2.452.014,3.248.692,3.948,3.892,3.951Q526.222,362.086,539.261,362.08Z" transform="translate(-432.976 -332.952)"/></svg>