<svg id="Layer_1" data-name="Layer 1" xmlns="http://www.w3.org/2000/svg" xmlns:xlink="http://www.w3.org/1999/xlink" viewBox="0 0 351.441 361.664"><defs><style>.cls-1{fill:url(#linear-gradient);}.cls-2{fill:url(#linear-gradient-2);}.cls-3{fill:url(#linear-gradient-3);}.cls-4{fill:url(#linear-gradient-4);}.cls-5{fill:url(#linear-gradient-5);}</style><linearGradient id="linear-gradient" x1="365.312" y1="546.582" x2="716.717" y2="546.582" gradientUnits="userSpaceOnUse"><stop offset="0" stop-color="#17244c"/><stop offset="0.01" stop-color="#17244c"/><stop offset="0.988" stop-color="#233770"/><stop offset="1" stop-color="#233770"/></linearGradient><linearGradient id="linear-gradient-2" x1="365.291" y1="707.056" x2="716.732" y2="707.056" xlink:href="#linear-gradient"/><linearGradient id="linear-gradient-3" x1="560.194" y1="455.005" x2="679.897" y2="455.005" xlink:href="#linear-gradient"/><linearGradient id="linear-gradient-4" x1="495.221" y1="542.861" x2="568.652" y2="542.861" xlink:href="#linear-gradient"/><linearGradient id="linear-gradient-5" x1="654.587" y1="390.278" x2="714.653" y2="390.278" xlink:href="#linear-gradient"/></defs><title>works svg 2</title><path class="cls-1" d="M672.428,454.985l23.855-21.632c1.469,1.13,2.96,2.155,4.315,3.337,10.428,9.1,16,20.594,16.035,34.426q.167,75.435.018,150.872a45.409,45.409,0,0,1-45.406,45.484q-130.217.11-260.432,0a45.357,45.357,0,0,1-45.4-45.212q-.195-75.565,0-151.133c.063-25.419,20.5-45.414,46.314-45.447q91.125-.118,182.25-.03h4.864c-.709.918-1.113,1.519-1.593,2.051-7.654,8.471-15.352,16.9-22.945,25.429a5.4,5.4,0,0,1-4.52,1.922q-78.443-.072-156.885-.044c-8.376,0-14.42,3.611-16.98,10.512a20.274,20.274,0,0,0-1.225,6.882q-.1,74.259-.038,148.519c0,10.231,7.035,17.3,17.258,17.3q129.17.029,258.34,0c10.071,0,17.142-7.091,17.147-17.146q.039-74.391.006-148.781c0-8.664-4.973-14.853-13.438-16.947C673.573,455.251,673.182,455.163,672.428,454.985Z" transform="translate(-365.291 -360.081)"/><path class="cls-2" d="M541.018,692.371q80.393,0,160.787,0a14.717,14.717,0,0,1,14.907,13.84,14.487,14.487,0,0,1-13.2,15.409,28.673,28.673,0,0,1-3.131.123q-159.348.007-318.7,0c-8.348,0-14-3.878-15.873-10.855A14.65,14.65,0,0,1,379.446,692.4c1.043-.06,2.091-.021,3.137-.021H541.018Z" transform="translate(-365.291 -360.081)"/><path class="cls-3" d="M650.235,395.145,679.9,424.883c-7.459,6.768-15.128,13.731-22.8,20.688q-36.417,33.013-72.836,66.027c-4.475,4.058-9.647,4.423-14.379.6a48.153,48.153,0,0,1-7.02-7c-3.8-4.668-3.468-9.97.54-14.393q42.584-46.977,85.17-93.952C649.148,396.219,649.77,395.622,650.235,395.145Z" transform="translate(-365.291 -360.081)"/><path class="cls-4" d="M495.253,577.994c2.912-13.2,5.712-26.365,8.754-39.477,1.442-6.214,3.648-12.232,7.5-17.41,7.889-10.619,18.516-15.172,31.554-12.808,12.583,2.281,20.908,9.909,24.658,22.148,2.272,7.416.182,14.275-3.736,20.687-6.518,10.665-16.316,16.895-27.943,20.65-13.043,4.212-26.482,5.876-40.122,6.249A2.649,2.649,0,0,1,495.253,577.994Z" transform="translate(-365.291 -360.081)"/><path class="cls-5" d="M684.78,420.475,654.587,390.25c1.808-2.007,3.768-4.194,5.741-6.371,6.377-7.037,12.805-14.03,19.112-21.129,2.041-2.3,4.513-3.356,7.212-2.194,3.7,1.6,7.57,3.283,10.619,5.828a124.281,124.281,0,0,1,12.486,12.607c2.691,3,4.793,6.556,4.894,10.731.04,1.661-.473,3.887-1.594,4.937C703.715,403.413,694.171,411.953,684.78,420.475Z" transform="translate(-365.291 -360.081)"/></svg>